<svg width="574" height="182" viewBox="0 0 574 182" fill="none" xmlns="http://www.w3.org/2000/svg">
<g clip-path="url(#clip0_863_22466)">
<path d="M240.95 142.78V33.84C240.931 33.5439 240.978 33.2473 241.088 32.9717C241.197 32.696 241.367 32.4482 241.584 32.2462C241.801 32.0442 242.061 31.8931 242.344 31.8038C242.627 31.7146 242.926 31.6893 243.22 31.73H253.42C253.7 31.7155 253.981 31.7603 254.243 31.8613C254.505 31.9624 254.743 32.1175 254.941 32.3165C255.139 32.5155 255.293 32.7541 255.393 33.0166C255.492 33.2791 255.536 33.5596 255.52 33.84V81.27H268.46L281.75 33.51C281.897 32.9842 282.217 32.523 282.658 32.2003C283.098 31.8776 283.634 31.712 284.18 31.73H294.38C294.693 31.6791 295.013 31.7122 295.309 31.8258C295.605 31.9393 295.865 32.1294 296.063 32.3765C296.262 32.6236 296.391 32.9189 296.438 33.2322C296.485 33.5456 296.447 33.8657 296.33 34.16L281.42 85C290.65 89.21 295.68 98.76 295.68 111.06V142.79C295.715 143.097 295.681 143.407 295.579 143.699C295.477 143.99 295.311 144.255 295.093 144.473C294.875 144.691 294.61 144.857 294.319 144.959C294.027 145.061 293.717 145.095 293.41 145.06H283.21C282.903 145.095 282.593 145.061 282.301 144.959C282.01 144.857 281.745 144.691 281.527 144.473C281.309 144.255 281.143 143.99 281.041 143.699C280.939 143.407 280.905 143.097 280.94 142.79V110.79C280.94 101.07 275.94 94.92 267.35 94.92H255.53V142.84C255.57 143.133 255.545 143.431 255.457 143.713C255.368 143.996 255.218 144.255 255.017 144.472C254.816 144.689 254.57 144.859 254.295 144.969C254.021 145.079 253.725 145.128 253.43 145.11H243.23C242.923 145.145 242.613 145.111 242.321 145.009C242.03 144.907 241.765 144.741 241.547 144.523C241.329 144.305 241.163 144.04 241.061 143.749C240.959 143.457 240.925 143.147 240.96 142.84" fill="white"/>
<path d="M316.42 142.78V59.9C316.42 42.09 327.42 30.11 344.1 30.11C360.78 30.11 371.95 42.09 371.95 59.9V142.78C371.983 143.086 371.947 143.396 371.845 143.686C371.743 143.977 371.577 144.241 371.359 144.459C371.141 144.676 370.877 144.843 370.587 144.945C370.296 145.047 369.986 145.083 369.68 145.05H359.48C359.177 145.071 358.873 145.026 358.589 144.92C358.304 144.813 358.046 144.646 357.832 144.431C357.618 144.216 357.452 143.957 357.347 143.672C357.241 143.387 357.198 143.083 357.22 142.78V106.85H330.95V142.78C330.991 143.073 330.966 143.371 330.877 143.653C330.788 143.936 330.638 144.195 330.437 144.412C330.236 144.629 329.99 144.799 329.715 144.909C329.441 145.019 329.145 145.068 328.85 145.05H318.51C318.216 145.066 317.921 145.017 317.648 144.906C317.375 144.795 317.13 144.625 316.93 144.408C316.73 144.191 316.581 143.932 316.493 143.651C316.405 143.37 316.38 143.072 316.42 142.78M357.21 93.4V59.25C357.21 49.54 352.51 43.87 344.1 43.87C335.84 43.87 330.98 49.54 330.98 59.25V93.4H357.21Z" fill="white"/>
<path d="M443.02 131.45C443.315 131.431 443.611 131.478 443.885 131.587C444.16 131.696 444.407 131.865 444.609 132.081C444.811 132.297 444.962 132.555 445.052 132.837C445.142 133.119 445.169 133.417 445.13 133.71V142.79C445.169 143.083 445.142 143.381 445.052 143.663C444.962 143.945 444.811 144.203 444.609 144.419C444.407 144.635 444.16 144.804 443.885 144.913C443.611 145.022 443.315 145.069 443.02 145.05H397.37C392.84 145.05 390.25 142.45 390.25 138.05V135C390.068 131.981 390.681 128.967 392.03 126.26L429.74 45.32H395.95C395.655 45.3376 395.359 45.2895 395.085 45.1791C394.81 45.0687 394.564 44.8988 394.363 44.6817C394.162 44.4646 394.012 44.2056 393.923 43.9235C393.834 43.6413 393.809 43.343 393.85 43.05V33.84C393.834 33.5596 393.877 33.2791 393.977 33.0166C394.077 32.7541 394.231 32.5156 394.429 32.3165C394.627 32.1175 394.865 31.9624 395.127 31.8613C395.389 31.7603 395.669 31.7155 395.95 31.73H437.55C441.93 31.73 444.55 33.84 444.68 38.53V41.6C444.85 45 444.68 47.43 443.23 50.35L405.23 131.45H443.02Z" fill="white"/>
<path d="M462.46 116.56V60.22C462.46 43.55 473.8 31.22 490.15 31.22H507.15C507.43 31.2042 507.711 31.2476 507.973 31.3474C508.236 31.4472 508.474 31.6011 508.673 31.7992C508.873 31.9973 509.028 32.2351 509.129 32.4971C509.23 32.7592 509.274 33.0395 509.26 33.32V42.55C509.299 42.8431 509.273 43.1412 509.183 43.4229C509.093 43.7046 508.941 43.9628 508.739 44.1789C508.538 44.3951 508.29 44.5638 508.016 44.6729C507.741 44.782 507.445 44.8288 507.15 44.81H491.29C482.86 44.81 477.2 51.29 477.2 60.52V81.11H503.08C503.388 81.0632 503.703 81.0892 504 81.1859C504.297 81.2826 504.566 81.4473 504.788 81.6669C505.01 81.8865 505.177 82.1549 505.276 82.4506C505.375 82.7463 505.404 83.0612 505.36 83.37V92.11C505.395 92.4175 505.361 92.7291 505.258 93.0213C505.156 93.3135 504.989 93.5788 504.77 93.7972C504.55 94.0157 504.284 94.1816 503.992 94.2825C503.699 94.3834 503.387 94.4167 503.08 94.38H477.2V116.24C477.2 125.46 482.86 131.93 491.29 131.93H507.14C507.436 131.911 507.733 131.958 508.008 132.068C508.284 132.177 508.532 132.347 508.734 132.564C508.936 132.781 509.087 133.041 509.176 133.324C509.265 133.607 509.291 133.906 509.25 134.2V143.43C509.264 143.71 509.22 143.991 509.119 144.253C509.018 144.515 508.862 144.753 508.663 144.951C508.464 145.149 508.226 145.303 507.963 145.403C507.701 145.502 507.42 145.546 507.14 145.53H490.14C473.79 145.53 462.45 133.23 462.45 116.53" fill="white"/>
<path d="M526.26 116.56V60.22C526.26 43.55 537.59 31.22 553.94 31.22H570.94C571.22 31.2056 571.499 31.2501 571.76 31.3506C572.022 31.451 572.259 31.6052 572.457 31.8031C572.655 32.0011 572.809 32.2384 572.909 32.4997C573.01 32.7609 573.054 33.0404 573.04 33.32V42.55C573.079 42.8422 573.053 43.1394 572.963 43.4203C572.874 43.7012 572.723 43.9589 572.523 44.1748C572.322 44.3908 572.076 44.5597 571.802 44.6695C571.529 44.7793 571.234 44.8273 570.94 44.81H555.07C546.66 44.81 541 51.29 541 60.52V81.11H566.89C567.198 81.0649 567.512 81.0922 567.807 81.1897C568.102 81.2872 568.371 81.4522 568.591 81.6715C568.811 81.8909 568.977 82.1587 569.076 82.4535C569.175 82.7483 569.204 83.0621 569.16 83.37V92.11C569.195 92.4166 569.161 92.7272 569.059 93.0186C568.957 93.31 568.791 93.5746 568.573 93.7929C568.355 94.0111 568.09 94.1772 567.799 94.2789C567.507 94.3805 567.197 94.4151 566.89 94.38H541V116.24C541 125.46 546.66 131.93 555.07 131.93H570.95C571.245 131.912 571.541 131.961 571.815 132.071C572.09 132.181 572.336 132.351 572.537 132.568C572.738 132.785 572.888 133.044 572.977 133.327C573.065 133.609 573.09 133.907 573.05 134.2V143.43C573.064 143.71 573.02 143.989 572.919 144.25C572.819 144.512 572.665 144.749 572.467 144.947C572.269 145.145 572.032 145.299 571.77 145.399C571.509 145.5 571.23 145.544 570.95 145.53H553.95C537.6 145.53 526.27 133.23 526.27 116.53" fill="white"/>
<path fill-rule="evenodd" clip-rule="evenodd" d="M102.45 -5.42426e-06H141.63C150.31 -5.42426e-06 156.81 3.71999 161.16 11.25C174.267 33.9633 187.39 56.6633 200.53 79.35C204.88 86.87 204.85 94.35 200.53 101.86C187.477 124.46 174.423 147.053 161.37 169.64C156.85 177.49 150.19 181.27 141.15 181.25C115.25 181.19 89.3466 181.19 63.44 181.25C54.44 181.25 47.77 177.48 43.24 169.61C30.38 147.203 17.4433 124.813 4.42996 102.44C-0.220045 94.44 -0.200045 86.75 4.42996 78.77C17.3433 56.6233 30.1833 34.4233 42.95 12.17C47.63 3.91999 54.41 -0.110005 63.95 -5.42426e-06C76.77 0.139995 89.61 -5.42426e-06 102.45 -5.42426e-06Z" fill="#E21F26"/>
<path d="M129.09 115.29C125.749 115.307 122.499 116.381 119.805 118.356C117.111 120.332 115.111 123.109 114.09 126.29H90.5799C89.9486 124.306 88.9288 122.467 87.5799 120.88L98.0999 105C101.233 105.796 104.535 105.61 107.56 104.468C110.584 103.326 113.184 101.283 115.009 98.6143C116.835 95.946 117.796 92.7815 117.764 89.5489C117.732 86.3163 116.708 83.1715 114.83 80.54L124.83 65.37C127.816 66.2054 130.982 66.1442 133.934 65.1941C136.886 64.2439 139.493 62.4466 141.431 60.026C143.369 57.6054 144.552 54.6683 144.834 51.5802C145.116 48.4921 144.483 45.3894 143.014 42.6582C141.546 39.9269 139.307 37.6878 136.576 36.2195C133.845 34.7511 130.742 34.1183 127.654 34.3999C124.566 34.6815 121.629 35.8649 119.208 37.803C116.787 39.7411 114.99 42.3483 114.04 45.3H90.5799C89.424 41.7113 87.0244 38.6533 83.8135 36.6772C80.6027 34.701 76.7915 33.9366 73.0669 34.5216C69.3423 35.1066 65.9491 37.0026 63.4986 39.868C61.0482 42.7334 59.7017 46.3797 59.7017 50.15C59.7017 53.9203 61.0482 57.5666 63.4986 60.432C65.9491 63.2974 69.3423 65.1934 73.0669 65.7784C76.7915 66.3634 80.6027 65.599 83.8135 63.6228C87.0244 61.6467 89.424 58.5887 90.5799 55H114.04C114.63 56.8164 115.545 58.5106 116.74 60L107.04 74.72C105.403 74.1532 103.682 73.8626 101.95 73.86C98.9354 73.8555 95.9825 74.7135 93.4398 76.3326C90.897 77.9518 88.8706 80.2646 87.5995 82.998C86.3285 85.7314 85.8659 88.7714 86.2664 91.7592C86.6669 94.747 87.9138 97.5578 89.8599 99.86L79.2699 115.76C76.2828 115.037 73.1497 115.201 70.2544 116.232C67.3591 117.263 64.8273 119.115 62.969 121.563C61.1107 124.011 60.0066 126.948 59.792 130.013C59.5774 133.079 60.2616 136.141 61.7608 138.824C63.2599 141.507 65.509 143.694 68.2325 145.118C70.956 146.542 74.0357 147.141 77.0943 146.841C80.153 146.542 83.0578 145.356 85.4531 143.431C87.8483 141.505 89.63 138.923 90.5799 136H114.04C114.935 138.779 116.583 141.255 118.8 143.155C121.016 145.054 123.716 146.303 126.598 146.763C129.481 147.222 132.435 146.875 135.133 145.759C137.83 144.642 140.166 142.801 141.881 140.439C143.596 138.076 144.624 135.285 144.85 132.375C145.076 129.464 144.492 126.548 143.162 123.949C141.833 121.35 139.809 119.17 137.317 117.65C134.824 116.131 131.959 115.331 129.04 115.34M129.04 44.08C130.251 44.0761 131.436 44.4321 132.444 45.1028C133.452 45.7736 134.238 46.7288 134.703 47.8472C135.167 48.9657 135.289 50.1969 135.052 51.3845C134.815 52.5721 134.231 53.6626 133.373 54.5175C132.515 55.3724 131.423 55.9531 130.235 56.186C129.046 56.4188 127.815 56.2932 126.698 55.8252C125.582 55.3572 124.629 54.5679 123.961 53.5574C123.294 52.547 122.942 51.361 122.95 50.15C122.946 49.3421 123.102 48.5414 123.409 47.7941C123.716 47.0468 124.168 46.3677 124.739 45.796C125.31 45.2242 125.988 44.7712 126.735 44.4629C127.482 44.1547 128.282 43.9973 129.09 44M75.5299 56.25C74.3214 56.248 73.1407 55.8877 72.137 55.2147C71.1334 54.5417 70.3518 53.5862 69.8912 52.469C69.4305 51.3517 69.3116 50.123 69.5493 48.9382C69.7869 47.7534 70.3706 46.6656 71.2265 45.8125C72.0824 44.9594 73.1721 44.3793 74.3577 44.1455C75.5433 43.9116 76.7716 44.0347 77.8873 44.4989C79.003 44.9632 79.956 45.7479 80.6257 46.7538C81.2954 47.7597 81.6519 48.9416 81.6499 50.15C81.6446 51.7696 80.9975 53.3212 79.8503 54.4646C78.7032 55.608 77.1495 56.25 75.5299 56.25M101.95 83.56C103.158 83.56 104.34 83.9183 105.344 84.5897C106.349 85.2611 107.132 86.2153 107.595 87.3318C108.057 88.4483 108.178 89.6768 107.942 90.862C107.707 92.0472 107.125 93.1359 106.27 93.9904C105.416 94.8449 104.327 95.4268 103.142 95.6626C101.957 95.8983 100.728 95.7773 99.6117 95.3149C98.4952 94.8524 97.541 94.0693 96.8696 93.0645C96.1982 92.0597 95.8399 90.8784 95.8399 89.67C95.8425 88.0503 96.4871 86.4978 97.6324 85.3525C98.7776 84.2072 100.33 83.5626 101.95 83.56M75.5299 137.21C74.3219 137.208 73.1415 136.848 72.1381 136.175C71.1346 135.503 70.353 134.548 69.8921 133.431C69.4312 132.315 69.3116 131.086 69.5485 129.902C69.7854 128.717 70.3681 127.63 71.223 126.776C72.0779 125.923 73.1666 125.342 74.3516 125.107C75.5365 124.872 76.7645 124.993 77.8804 125.456C78.9962 125.919 79.9499 126.702 80.6208 127.706C81.2918 128.711 81.6499 129.892 81.6499 131.1C81.6472 132.721 81.0013 134.275 79.8538 135.421C78.7064 136.567 77.1513 137.21 75.5299 137.21M129.09 137.21C127.881 137.212 126.699 136.855 125.693 136.185C124.687 135.515 123.902 134.561 123.438 133.445C122.974 132.329 122.851 131.1 123.086 129.914C123.321 128.728 123.902 127.639 124.756 126.783C125.61 125.928 126.699 125.345 127.884 125.108C129.07 124.872 130.299 124.992 131.416 125.454C132.533 125.916 133.488 126.699 134.159 127.704C134.831 128.709 135.19 129.891 135.19 131.1C135.187 132.718 134.544 134.269 133.401 135.414C132.258 136.559 130.708 137.205 129.09 137.21" fill="white"/>
</g>
<defs>
<clipPath id="clip0_863_22466">
<rect width="572.1" height="181.25" fill="white" transform="translate(0.949951)"/>
</clipPath>
</defs>
</svg>
